<?xml version="1.0" standalone="no"?><!DOCTYPE svg PUBLIC "-//W3C//DTD SVG 1.1//EN" "http://www.w3.org/Graphics/SVG/1.1/DTD/svg11.dtd"><svg t="1532577941696" class="icon" style="" viewBox="0 0 1024 1024" version="1.1" xmlns="http://www.w3.org/2000/svg" p-id="2201" xmlns:xlink="http://www.w3.org/1999/xlink" width="32" height="32"><defs><style type="text/css"></style></defs><path d="M896.952442 260.60232 884.601136 260.60232c-7.614421 0-14.902408 1.38658-21.636786 3.90596l0-10.926864c0-45.404096-36.939307-82.34238-82.34238-82.34238l-2.058892 0c-45.403073 0-82.34238 36.938284-82.34238 82.34238L696.220698 464.399889 327.734276 464.399889 327.734276 253.580392c0-45.404096-36.938284-82.34238-82.34238-82.34238l-2.058892 0c-45.404096 0-82.34238 36.938284-82.34238 82.34238l0 10.909467c-6.722098-2.509147-13.994736-3.888564-21.591761-3.888564L127.047558 260.601296c-34.107819 0-61.757552 27.649733-61.757552 61.757552l0 405.538293c0 34.107819 27.649733 61.757552 61.757552 61.757552l12.351306 0c7.597025 0 14.869662-1.379417 21.591761-3.888564l0 15.395642c0 45.403073 36.938284 82.34238 82.34238 82.34238l2.058892 0c45.404096 0 82.34238-36.939307 82.34238-82.34238L327.734276 592.031754l368.484376 0 0 209.130018c0 45.403073 36.939307 82.34238 82.34238 82.34238l2.058892 0c45.403073 0 82.34238-36.939307 82.34238-82.34238l0-15.413038c6.734378 2.520403 14.023388 3.90596 21.636786 3.90596l12.351306 0c34.107819 0 61.757552-27.649733 61.757552-61.757552L958.707948 322.358849C958.708971 288.25103 931.059238 260.60232 896.952442 260.60232zM159.984714 727.897142c0 11.368932-9.216919 20.585851-20.585851 20.585851L127.047558 748.482993c-11.368932 0-20.585851-9.216919-20.585851-20.585851L106.461707 322.358849c0-11.368932 9.216919-20.585851 20.585851-20.585851l12.351306 0c11.368932 0 20.585851 9.216919 20.585851 20.585851L159.984714 727.897142zM245.391896 842.332451l-2.058892 0c-22.702048 0-41.171702-18.46863-41.171702-41.171702L202.161303 253.580392c0-22.702048 18.469654-41.171702 41.171702-41.171702l2.058892 0c22.701025 0 41.171702 18.469654 41.171702 41.171702l0 547.580357C286.563598 823.86382 268.093944 842.332451 245.391896 842.332451zM695.212742 550.860053 327.734276 550.860053l0-45.288462 367.477442 0L695.211718 550.860053zM821.791625 801.160749c0 22.702048-18.46863 41.171702-41.171702 41.171702l-2.058892 0c-22.702048 0-41.171702-18.46863-41.171702-41.171702L737.38933 253.580392c0-22.702048 18.46863-41.171702 41.171702-41.171702l2.058892 0c22.702048 0 41.171702 18.469654 41.171702 41.171702L821.791625 801.160749zM917.538293 727.897142c0 11.368932-9.216919 20.585851-20.585851 20.585851L884.601136 748.482993c-11.368932 0-20.585851-9.216919-20.585851-20.585851L864.015286 322.358849c0-11.368932 9.216919-20.585851 20.585851-20.585851l12.351306 0c11.368932 0 20.585851 9.216919 20.585851 20.585851L917.538293 727.897142z" p-id="2202"></path></svg>